# xmcd
#
# Track frame offsets: 
#        150
#        20475
#        48645
#        66814
#        89292
#        111575
#        136516
#        161659
#        177985
#        197461
#        215105
#
# Disc length: 3088 seconds
#
# Revision: 0
# Processed by: cddbd v1.5.1PL0 Copyright (c) Steve Scherf et al.
# Submitted via: ExactAudioCopy v0.95b1
#
DISCID=9c0c0e0b
DTITLE=Lost In Place - Failsafe Corroded
DYEAR=1900
DGENRE=Synthpop
TTITLE0=Things I See
TTITLE1=Father [less edit]
TTITLE2=Raven(Angel)
TTITLE3=Failure
TTITLE4=Kardion [Remains]
TTITLE5=Decomposed
TTITLE6=Disposable Contact
TTITLE7=The Revelation
TTITLE8=Serenade
TTITLE9=Control [Queen Bill]
TTITLE10=Retaliation
EXTD=
EXTT0=
EXTT1=
EXTT2=
EXTT3=
EXTT4=
EXTT5=
EXTT6=
EXTT7=
EXTT8=
EXTT9=
EXTT10=
PLAYORDER=
